<svg xmlns="http://www.w3.org/2000/svg" xmlns:xlink="http://www.w3.org/1999/xlink" width="500" zoomAndPan="magnify" viewBox="0 0 375 374.999991" height="500" preserveAspectRatio="xMidYMid meet" version="1.0"><defs><g/><clipPath id="fe92310b99"><path d="M 77.59375 2.101562 L 339.488281 2.101562 L 339.488281 326.351562 L 77.59375 326.351562 Z M 77.59375 2.101562 " clip-rule="nonzero"/></clipPath></defs><g clip-path="url(#fe92310b99)"><path fill="#000000" d="M 338.78125 21.398438 C 338.441406 21.1875 338.015625 21.179688 337.625 21.230469 C 334.761719 21.617188 332.832031 24.636719 329.988281 25.117188 C 330.136719 24.121094 330.539062 23.183594 330.941406 22.261719 C 333.453125 16.472656 336.058594 10.722656 338.757812 5.015625 C 339.160156 4.160156 339.472656 2.929688 338.664062 2.433594 C 338.179688 2.132812 337.511719 2.328125 337.09375 2.71875 C 336.679688 3.109375 336.449219 3.65625 336.214844 4.175781 C 334.695312 7.546875 332.5 10.554688 330.316406 13.539062 C 328.957031 15.402344 327.582031 17.28125 325.886719 18.84375 C 323.863281 20.707031 321.425781 22.089844 319.496094 24.046875 C 318.277344 25.28125 317.289062 26.722656 316.125 28.011719 C 313.542969 30.871094 310.09375 32.933594 306.355469 33.855469 C 296.910156 36.191406 287.226562 37.964844 277.699219 39.925781 C 273.667969 40.753906 269.601562 41.597656 265.832031 43.257812 C 261.796875 45.039062 258.179688 47.75 255.339844 51.125 C 251.179688 56.058594 243.023438 54.84375 237.449219 58.097656 C 235.980469 58.953125 234.605469 59.996094 233.015625 60.59375 C 231.289062 61.242188 229.410156 61.328125 227.582031 61.570312 C 220.886719 62.46875 214.511719 65.632812 209.75 70.429688 C 209.023438 66.796875 210.796875 63.121094 210.210938 59.460938 C 210.148438 59.078125 210.050781 58.683594 209.808594 58.378906 C 209.609375 58.128906 209.324219 57.957031 209.140625 57.695312 C 208.871094 57.316406 208.859375 56.820312 208.847656 56.355469 C 208.746094 51.835938 207.847656 47.335938 206.203125 43.121094 C 205.835938 42.183594 205.429688 41.253906 204.867188 40.417969 C 204.429688 39.773438 203.902344 39.191406 203.339844 38.648438 C 199.40625 34.835938 192.636719 32.882812 187.15625 32.828125 C 182.183594 32.78125 177.25 35.195312 174.234375 39.148438 C 170.230469 44.402344 169.847656 51.46875 169.507812 58.066406 C 169.488281 58.511719 169.460938 58.964844 169.335938 59.390625 C 169.183594 59.90625 168.894531 60.367188 168.683594 60.859375 C 168 62.476562 168.242188 64.324219 168.628906 66.035156 C 169.148438 68.328125 169.910156 70.566406 170.894531 72.699219 C 171.097656 73.136719 171.335938 73.601562 171.773438 73.8125 C 172.089844 73.96875 172.464844 73.957031 172.800781 74.070312 C 173.648438 74.347656 174.078125 75.3125 174.128906 76.203125 C 174.179688 77.09375 173.953125 77.980469 173.964844 78.871094 C 173.988281 80.585938 174.875 82.148438 175.605469 83.699219 C 176.335938 85.253906 176.933594 87.039062 176.359375 88.65625 C 175.730469 90.421875 173.828125 91.605469 173.519531 93.453125 C 172.152344 94.632812 170.488281 95.785156 169.125 96.964844 C 168.25 97.722656 167.371094 98.480469 166.578125 99.320312 C 165.832031 100.105469 165.164062 100.957031 164.5 101.808594 L 158.53125 109.417969 C 156.757812 111.683594 154.324219 115.679688 153.136719 118.300781 C 153.121094 118.335938 153.105469 118.371094 153.089844 118.410156 C 150.414062 124.308594 149.09375 130.722656 149.144531 137.203125 C 149.195312 143.207031 148.785156 149.21875 147.921875 155.164062 C 147.328125 159.246094 147.84375 163.933594 145.660156 167.4375 C 144.871094 168.699219 143.75 169.710938 142.667969 170.734375 C 136.703125 176.359375 131.476562 182.769531 127.171875 189.746094 C 123.519531 195.664062 117.636719 200.328125 114.492188 206.53125 C 113.632812 208.226562 112.886719 210 111.757812 211.535156 C 111.070312 212.472656 110.246094 213.316406 109.683594 214.335938 C 108.957031 215.65625 108.71875 217.1875 108.453125 218.671875 C 107.800781 222.332031 106.902344 225.945312 105.765625 229.484375 C 103.78125 235.652344 101.074219 241.71875 100.230469 248.144531 C 99.972656 250.132812 99.863281 252.136719 99.753906 254.136719 C 99.0625 266.945312 98.371094 279.753906 97.675781 292.558594 C 98.007812 292.828125 97.535156 293.332031 97.21875 293.617188 C 96.902344 293.902344 96.472656 294.027344 96.117188 294.261719 C 95.148438 294.917969 94.949219 296.261719 94.207031 297.164062 C 93.1875 298.402344 91.304688 298.628906 90.246094 299.832031 C 89.367188 300.828125 89.25 302.253906 88.960938 303.546875 C 87.875 308.386719 84.066406 312.070312 80.480469 315.496094 C 79.449219 316.480469 78.378906 317.546875 78.035156 318.925781 C 77.589844 320.695312 78.441406 322.519531 78.503906 324.34375 C 78.515625 324.652344 78.507812 324.988281 78.679688 325.25 C 78.71875 325.308594 78.761719 325.359375 78.8125 325.402344 C 79.574219 326.09375 80.648438 326.335938 81.675781 326.316406 L 95.648438 326.101562 C 96.84375 326.082031 98.058594 326.058594 99.1875 325.671875 C 101.027344 325.035156 102.417969 323.507812 104.148438 322.621094 C 106.234375 321.546875 108.675781 321.46875 110.933594 320.832031 C 113.191406 320.191406 115.519531 318.613281 115.71875 316.277344 C 115.847656 314.777344 115.058594 313.371094 114.421875 312.007812 C 112.695312 308.300781 111.9375 304.148438 112.246094 300.070312 C 112.296875 299.382812 112.367188 298.644531 112.03125 298.039062 C 111.777344 297.585938 111.324219 297.273438 111.03125 296.84375 C 110.542969 296.125 110.566406 295.183594 110.644531 294.320312 C 111.628906 283.851562 118.453125 274.976562 122.324219 265.195312 C 126.015625 255.871094 125.011719 245.183594 126.90625 235.335938 C 127.148438 234.082031 127.429688 232.8125 128.027344 231.683594 C 128.101562 231.773438 128.066406 231.710938 128.03125 231.601562 C 127.996094 231.488281 128.09375 231.382812 128.179688 231.308594 C 132.234375 227.78125 136.292969 224.253906 140.347656 220.722656 C 141.386719 219.820312 142.496094 218.878906 143.855469 218.636719 C 146.332031 218.195312 148.445312 220.144531 150.710938 221.335938 C 151.855469 221.9375 152.972656 223.511719 153.207031 224.78125 C 154.757812 233.28125 156 241.839844 156.933594 250.429688 C 157.070312 251.691406 157.199219 252.964844 157.0625 254.222656 C 156.714844 257.417969 154.675781 260.492188 155.421875 263.617188 C 150.136719 263.820312 144.925781 267.71875 143.589844 272.832031 C 143.128906 274.597656 143.0625 276.445312 143.125 278.265625 C 143.179688 279.808594 143.328125 281.367188 143.882812 282.804688 C 144.351562 284.03125 145.097656 285.132812 145.878906 286.1875 C 147.886719 288.910156 150.148438 291.445312 152.625 293.75 C 151.359375 297.042969 150.855469 301.164062 151.984375 304.507812 C 152.738281 306.734375 153.925781 308.792969 155.398438 310.632812 C 156.703125 312.265625 158.671875 313.230469 160.761719 313.230469 L 172.660156 313.230469 C 174.644531 313.230469 176.550781 312.378906 177.832031 310.863281 C 178.773438 309.746094 179.601562 308.558594 180.242188 307.183594 C 182.328125 302.6875 181.746094 297.070312 178.78125 293.097656 C 181.476562 289.921875 184.40625 286.292969 186.023438 282.449219 C 187.636719 278.605469 188.035156 274.042969 186.113281 270.34375 C 185.242188 268.664062 183.949219 267.25 182.667969 265.859375 C 182.550781 264.734375 182.207031 263.761719 182.089844 262.636719 C 181.960938 261.417969 181.828125 260.183594 181.355469 259.050781 C 180.28125 256.484375 177.683594 254.933594 175.214844 253.660156 C 173.769531 252.910156 172.191406 251.023438 171.617188 249.5 C 171.253906 248.539062 170.628906 247.542969 170.554688 246.597656 C 170.207031 242.269531 169.859375 237.9375 169.511719 233.609375 C 169.398438 232.160156 169.28125 230.707031 169.324219 229.253906 C 169.394531 226.957031 169.863281 224.695312 170.175781 222.421875 C 170.863281 217.445312 170.796875 212.367188 169.984375 207.40625 C 169.898438 206.890625 169.808594 206.355469 169.949219 205.855469 C 170.085938 205.359375 170.4375 204.953125 170.773438 204.566406 L 175.171875 199.527344 C 176.199219 198.351562 178.320312 197.394531 179.886719 197.378906 C 186.402344 197.308594 193.109375 200.214844 199.292969 198.121094 C 200.824219 197.601562 202.285156 196.78125 203.894531 196.632812 C 205.503906 196.488281 207.386719 197.320312 207.675781 198.910156 C 211.207031 200.90625 213.65625 204.085938 216.183594 207.257812 C 218.246094 209.847656 220.3125 212.4375 222.375 215.027344 C 223.546875 216.496094 224.996094 218.101562 226.875 218.0625 C 227.964844 218.035156 228.953125 217.441406 229.855469 216.828125 C 232.359375 215.132812 234.679688 213.164062 236.765625 210.972656 C 241.125 213.449219 245.503906 215.75 249.859375 218.222656 C 251.199219 218.984375 252.550781 219.753906 253.664062 220.820312 C 255.808594 222.875 256.851562 225.855469 257.191406 228.808594 C 257.527344 231.757812 257.234375 234.738281 257.085938 237.707031 C 256.910156 241.351562 256.957031 245.011719 257.234375 248.652344 C 257.480469 251.890625 257.910156 255.136719 258.972656 258.203125 C 259.734375 260.398438 260.808594 262.46875 261.78125 264.578125 C 265.792969 273.300781 268.039062 282.828125 268.351562 292.425781 C 268.484375 296.609375 266.351562 300.628906 266.101562 304.804688 C 266.011719 306.296875 266.269531 307.808594 266.039062 309.285156 C 265.699219 311.449219 264.335938 313.417969 264.339844 315.613281 C 264.34375 316.429688 264.582031 317.3125 265.238281 317.804688 C 265.65625 318.117188 266.183594 318.234375 266.691406 318.34375 C 269.136719 318.875 271.730469 319.582031 273.378906 321.464844 C 273.828125 321.976562 274.191406 322.5625 274.691406 323.023438 C 275.847656 324.089844 277.523438 324.328125 279.089844 324.472656 C 284.140625 324.9375 289.238281 324.921875 294.289062 324.449219 C 295.925781 324.296875 297.890625 323.835938 298.367188 322.265625 C 298.515625 321.785156 298.488281 321.273438 298.457031 320.769531 C 298.253906 317.578125 297.835938 314.191406 295.820312 311.703125 C 294.417969 309.976562 292.378906 308.871094 290.890625 307.214844 C 289.015625 305.132812 288.152344 302.359375 287.359375 299.675781 C 287 298.464844 286.628906 297.222656 285.839844 296.234375 C 285.445312 295.742188 284.957031 295.328125 284.566406 294.832031 C 283.640625 293.660156 283.289062 292.09375 282.226562 291.101562 C 281.972656 290.375 281.757812 289.757812 281.503906 289.03125 C 281.832031 286.332031 281.765625 283.460938 281.796875 280.742188 C 281.824219 278.105469 281.710938 275.464844 281.683594 272.828125 C 281.621094 266.902344 281.980469 260.980469 282.339844 255.066406 C 283 244.1875 281.390625 233.300781 277.761719 223.023438 C 276.191406 218.578125 275.242188 213.972656 275.324219 209.195312 C 275.355469 207.390625 275.082031 205.585938 274.339844 203.941406 C 270.832031 196.144531 263.933594 190.75 259.808594 183.265625 C 257.058594 178.269531 251.085938 175.699219 247.707031 171.109375 C 246.773438 169.847656 245.9375 168.515625 244.949219 167.296875 C 241.730469 163.332031 236.875 160.4375 235.300781 155.582031 C 235.078125 154.902344 234.925781 154.1875 234.582031 153.558594 C 233.425781 151.433594 230.625 150.984375 228.214844 150.773438 C 228.097656 150.398438 227.429688 150.425781 227.046875 150.34375 C 226.535156 150.234375 226.4375 149.558594 226.453125 149.035156 C 226.605469 144.292969 226.855469 139.558594 227.195312 134.828125 C 227.480469 130.925781 227.828125 127.027344 227.847656 123.117188 C 227.867188 119.046875 227.53125 114.984375 227.199219 110.929688 C 226.445312 101.835938 229.96875 93.472656 230.777344 84.382812 C 231.949219 83.390625 233.539062 83.539062 235.023438 83.152344 C 240.679688 81.671875 245.09375 77.414062 249.914062 74.109375 C 255.304688 70.410156 261.367188 67.832031 267.382812 65.277344 C 279.589844 60.09375 291.332031 53.652344 302.484375 46.480469 C 303.707031 45.691406 304.941406 44.914062 306.21875 44.214844 C 307.707031 43.398438 309.257812 42.695312 310.800781 41.992188 C 313.476562 40.777344 316.152344 39.5625 318.824219 38.347656 C 320.304688 37.675781 321.773438 37.5625 323.324219 37.085938 C 327.667969 35.75 330.007812 31.070312 333.78125 28.539062 C 334.945312 27.757812 336.242188 27.183594 337.351562 26.332031 C 338.460938 25.476562 339.398438 24.242188 339.421875 22.84375 C 339.425781 22.296875 339.25 21.6875 338.78125 21.398438 Z M 169.777344 274.722656 C 169.957031 274.585938 170.097656 274.398438 170.28125 274.265625 C 170.785156 273.917969 171.488281 274.082031 172.027344 274.378906 C 172.5625 274.671875 173.054688 275.085938 173.652344 275.226562 C 174.570312 275.445312 175.542969 274.941406 176.148438 274.214844 C 176.753906 273.488281 177.066406 272.570312 177.367188 271.675781 C 178.394531 272.105469 179.152344 273.046875 179.554688 274.085938 C 179.957031 275.125 180.042969 276.261719 180.023438 277.375 C 180.003906 278.425781 179.894531 279.488281 179.554688 280.484375 C 179 282.117188 177.867188 283.484375 176.761719 284.8125 C 176.132812 285.5625 175.503906 286.316406 174.875 287.070312 C 172.441406 284.613281 168.863281 283.402344 165.410156 283.65625 C 161.957031 283.90625 158.667969 285.570312 156.25 288.042969 C 154.703125 286.09375 153.15625 284.148438 151.613281 282.203125 C 150.953125 281.371094 150.285156 280.527344 149.882812 279.546875 C 149.101562 277.644531 149.445312 275.367188 150.601562 273.671875 C 151.527344 272.316406 153.277344 270.875 154.957031 270.617188 C 155.996094 270.457031 155.957031 270.902344 156.515625 271.738281 C 157.042969 272.523438 157.675781 273.234375 158.394531 273.84375 C 159.039062 274.394531 160.078125 274.839844 160.660156 274.222656 C 160.8125 274.066406 160.902344 273.855469 161.070312 273.714844 C 161.480469 273.371094 162.101562 273.589844 162.570312 273.847656 C 163.429688 274.316406 164.488281 274.867188 165.320312 274.347656 C 165.539062 274.207031 165.722656 274 165.964844 273.90625 C 166.566406 273.675781 167.160156 274.207031 167.695312 274.566406 C 168.3125 274.980469 169.1875 275.175781 169.777344 274.722656 Z M 169.777344 274.722656 " fill-opacity="1" fill-rule="nonzero"/></g><g fill="#000000" fill-opacity="1"><g transform="translate(50.882964, 359.755293)"><g><path d="M 8.71875 -31.390625 L 12.921875 -31.390625 C 15.648438 -31.390625 17.84375 -30.96875 19.5 -30.125 C 21.164062 -29.289062 22.367188 -28.117188 23.109375 -26.609375 C 23.859375 -25.097656 24.234375 -23.335938 24.234375 -21.328125 C 24.234375 -19.210938 23.859375 -17.398438 23.109375 -15.890625 C 22.367188 -14.390625 21.164062 -13.234375 19.5 -12.421875 C 17.84375 -11.617188 15.648438 -11.21875 12.921875 -11.21875 L 9.421875 -11.21875 L 9.421875 -8.71875 C 9.421875 -6.800781 9.125 -5.148438 8.53125 -3.765625 C 7.9375 -2.378906 7.113281 -1.289062 6.0625 -0.5 C 5.019531 0.289062 3.832031 0.765625 2.5 0.921875 L 2.5 -30.46875 C 2.5 -31.082031 2.804688 -31.390625 3.421875 -31.390625 L 8.5 -31.390625 C 8.601562 -31.390625 8.675781 -31.378906 8.71875 -31.359375 Z M 9.421875 -17.125 L 12.234375 -17.125 C 12.523438 -17.125 12.878906 -17.140625 13.296875 -17.171875 C 13.722656 -17.203125 14.164062 -17.28125 14.625 -17.40625 C 15.09375 -17.539062 15.53125 -17.753906 15.9375 -18.046875 C 16.34375 -18.335938 16.671875 -18.75 16.921875 -19.28125 C 17.179688 -19.8125 17.3125 -20.492188 17.3125 -21.328125 C 17.3125 -22.140625 17.179688 -22.800781 16.921875 -23.3125 C 16.671875 -23.832031 16.34375 -24.234375 15.9375 -24.515625 C 15.539062 -24.804688 15.113281 -25.007812 14.65625 -25.125 C 14.195312 -25.25 13.75 -25.320312 13.3125 -25.34375 C 12.882812 -25.375 12.523438 -25.390625 12.234375 -25.390625 L 9.421875 -25.390625 Z M 9.421875 -17.125 "/></g></g></g><g fill="#000000" fill-opacity="1"><g transform="translate(75.981344, 359.755293)"><g><path d="M 22.109375 -19.34375 L 22.109375 -22.203125 C 22.109375 -24.128906 22.40625 -25.789062 23 -27.1875 C 23.601562 -28.582031 24.425781 -29.707031 25.46875 -30.5625 C 26.507812 -31.414062 27.695312 -32 29.03125 -32.3125 L 29.03125 -0.921875 C 29.03125 -0.304688 28.722656 0 28.109375 0 L 23.03125 0 C 22.414062 0 22.109375 -0.304688 22.109375 -0.921875 L 22.109375 -13.0625 L 17.765625 -13.0625 C 15.597656 -13.0625 13.8125 -13.472656 12.40625 -14.296875 C 11 -15.117188 10.019531 -16.191406 9.46875 -17.515625 L 9.46875 -9.1875 C 9.46875 -7.257812 9.171875 -5.59375 8.578125 -4.1875 C 7.984375 -2.789062 7.160156 -1.664062 6.109375 -0.8125 C 5.066406 0.0390625 3.875 0.617188 2.53125 0.921875 L 2.53125 -30.46875 C 2.53125 -31.082031 2.84375 -31.390625 3.46875 -31.390625 L 8.53125 -31.390625 C 9.15625 -31.390625 9.46875 -31.082031 9.46875 -30.46875 L 9.46875 -19.34375 Z M 22.109375 -19.34375 "/></g></g></g><g fill="#000000" fill-opacity="1"><g transform="translate(107.585008, 359.755293)"><g><path d="M 17.359375 0.46875 C 14.890625 0.46875 12.664062 0.0820312 10.6875 -0.6875 C 8.71875 -1.457031 7.03125 -2.554688 5.625 -3.984375 C 4.21875 -5.421875 3.132812 -7.132812 2.375 -9.125 C 1.625 -11.113281 1.25 -13.332031 1.25 -15.78125 C 1.25 -18.257812 1.628906 -20.488281 2.390625 -22.46875 C 3.160156 -24.457031 4.257812 -26.144531 5.6875 -27.53125 C 7.113281 -28.925781 8.816406 -29.992188 10.796875 -30.734375 C 12.785156 -31.472656 14.988281 -31.84375 17.40625 -31.84375 C 19.863281 -31.84375 22.082031 -31.46875 24.0625 -30.71875 C 26.039062 -29.96875 27.734375 -28.882812 29.140625 -27.46875 C 30.546875 -26.0625 31.625 -24.367188 32.375 -22.390625 C 33.132812 -20.421875 33.515625 -18.203125 33.515625 -15.734375 C 33.515625 -13.265625 33.128906 -11.03125 32.359375 -9.03125 C 31.585938 -7.039062 30.488281 -5.335938 29.0625 -3.921875 C 27.644531 -2.503906 25.945312 -1.414062 23.96875 -0.65625 C 21.988281 0.09375 19.785156 0.46875 17.359375 0.46875 Z M 17.359375 -5.8125 C 18.648438 -5.8125 19.851562 -6.035156 20.96875 -6.484375 C 22.082031 -6.929688 23.0625 -7.582031 23.90625 -8.4375 C 24.75 -9.300781 25.40625 -10.347656 25.875 -11.578125 C 26.351562 -12.816406 26.59375 -14.21875 26.59375 -15.78125 C 26.59375 -17.332031 26.351562 -18.710938 25.875 -19.921875 C 25.40625 -21.128906 24.75 -22.148438 23.90625 -22.984375 C 23.0625 -23.828125 22.082031 -24.46875 20.96875 -24.90625 C 19.851562 -25.351562 18.648438 -25.578125 17.359375 -25.578125 C 16.097656 -25.578125 14.90625 -25.359375 13.78125 -24.921875 C 12.664062 -24.492188 11.6875 -23.859375 10.84375 -23.015625 C 10.007812 -22.179688 9.351562 -21.15625 8.875 -19.9375 C 8.40625 -18.71875 8.171875 -17.332031 8.171875 -15.78125 C 8.171875 -14.21875 8.40625 -12.816406 8.875 -11.578125 C 9.351562 -10.347656 10.007812 -9.300781 10.84375 -8.4375 C 11.6875 -7.582031 12.664062 -6.929688 13.78125 -6.484375 C 14.90625 -6.035156 16.097656 -5.8125 17.359375 -5.8125 Z M 17.359375 -5.8125 "/></g></g></g><g fill="#000000" fill-opacity="1"><g transform="translate(142.325954, 359.755293)"><g><path d="M 33 -30.609375 L 40.0625 -1.015625 C 40.132812 -0.722656 40.09375 -0.476562 39.9375 -0.28125 C 39.789062 -0.09375 39.554688 0 39.234375 0 L 33.96875 0 C 33.382812 0 33.046875 -0.273438 32.953125 -0.828125 L 29.03125 -19.6875 L 25.578125 -8.578125 C 25.046875 -6.898438 24.507812 -5.5 23.96875 -4.375 C 23.4375 -3.257812 22.878906 -2.347656 22.296875 -1.640625 C 21.710938 -0.929688 21.082031 -0.382812 20.40625 0 C 19.738281 0.394531 19.015625 0.703125 18.234375 0.921875 L 11.71875 -19.703125 L 9.515625 -9.09375 C 9.046875 -6.832031 8.359375 -4.960938 7.453125 -3.484375 C 6.546875 -2.003906 5.476562 -0.898438 4.25 -0.171875 C 3.019531 0.554688 1.679688 0.921875 0.234375 0.921875 L 7.75 -30.609375 C 7.894531 -31.128906 8.234375 -31.390625 8.765625 -31.390625 L 13.53125 -31.390625 C 14.0625 -31.390625 14.398438 -31.128906 14.546875 -30.609375 L 20.328125 -11.765625 L 26.21875 -30.609375 C 26.351562 -31.128906 26.691406 -31.390625 27.234375 -31.390625 L 31.984375 -31.390625 C 32.523438 -31.390625 32.863281 -31.128906 33 -30.609375 Z M 33 -30.609375 "/></g></g></g><g fill="#000000" fill-opacity="1"><g transform="translate(182.972401, 359.755293)"><g><path d="M 19.578125 -25.109375 L 9.234375 -25.109375 L 9.234375 -19.34375 L 19.109375 -19.34375 C 19.722656 -19.34375 20.03125 -19.035156 20.03125 -18.421875 L 20.03125 -13.984375 C 20.03125 -13.367188 19.722656 -13.0625 19.109375 -13.0625 L 17.546875 -13.0625 C 15.367188 -13.0625 13.578125 -13.472656 12.171875 -14.296875 C 10.765625 -15.117188 9.785156 -16.191406 9.234375 -17.515625 L 9.234375 -6.28125 L 19.578125 -6.28125 C 20.191406 -6.28125 20.5 -5.972656 20.5 -5.359375 L 20.5 -0.921875 C 20.5 -0.304688 20.191406 0 19.578125 0 L 3.234375 0 C 2.617188 0 2.3125 -0.304688 2.3125 -0.921875 L 2.3125 -15.921875 C 2.3125 -18.335938 2.773438 -20.328125 3.703125 -21.890625 C 4.628906 -23.453125 5.847656 -24.523438 7.359375 -25.109375 L 3.234375 -25.109375 C 2.617188 -25.109375 2.3125 -25.414062 2.3125 -26.03125 L 2.3125 -30.46875 C 2.3125 -31.082031 2.617188 -31.390625 3.234375 -31.390625 L 19.578125 -31.390625 C 20.191406 -31.390625 20.5 -31.082031 20.5 -30.46875 L 20.5 -26.03125 C 20.5 -25.414062 20.191406 -25.109375 19.578125 -25.109375 Z M 19.578125 -25.109375 "/></g></g></g><g fill="#000000" fill-opacity="1"><g transform="translate(205.348725, 359.755293)"><g><path d="M 28.9375 -11.71875 L 31.25 -22.75 C 31.726562 -25.007812 32.410156 -26.84375 33.296875 -28.25 C 34.179688 -29.664062 35.222656 -30.695312 36.421875 -31.34375 C 37.617188 -31.988281 38.941406 -32.3125 40.390625 -32.3125 L 32.90625 -0.78125 C 32.769531 -0.257812 32.429688 0 31.890625 0 L 27.140625 0 C 26.597656 0 26.257812 -0.257812 26.125 -0.78125 L 20.328125 -19.984375 L 14.453125 -0.78125 C 14.304688 -0.257812 13.96875 0 13.4375 0 L 8.671875 0 C 8.140625 0 7.800781 -0.257812 7.65625 -0.78125 L 0.59375 -30.375 C 0.53125 -30.675781 0.570312 -30.921875 0.71875 -31.109375 C 0.875 -31.296875 1.113281 -31.390625 1.4375 -31.390625 L 6.6875 -31.390625 C 7.269531 -31.390625 7.609375 -31.113281 7.703125 -30.5625 L 11.625 -11.765625 L 15.09375 -23.265625 C 15.601562 -24.941406 16.128906 -26.316406 16.671875 -27.390625 C 17.222656 -28.472656 17.804688 -29.335938 18.421875 -29.984375 C 19.035156 -30.628906 19.679688 -31.128906 20.359375 -31.484375 C 21.046875 -31.835938 21.785156 -32.113281 22.578125 -32.3125 Z M 28.9375 -11.71875 "/></g></g></g><g fill="#000000" fill-opacity="1"><g transform="translate(245.995173, 359.755293)"><g><path d="M 19.578125 -25.109375 L 9.234375 -25.109375 L 9.234375 -19.34375 L 19.109375 -19.34375 C 19.722656 -19.34375 20.03125 -19.035156 20.03125 -18.421875 L 20.03125 -13.984375 C 20.03125 -13.367188 19.722656 -13.0625 19.109375 -13.0625 L 17.546875 -13.0625 C 15.367188 -13.0625 13.578125 -13.472656 12.171875 -14.296875 C 10.765625 -15.117188 9.785156 -16.191406 9.234375 -17.515625 L 9.234375 -6.28125 L 19.578125 -6.28125 C 20.191406 -6.28125 20.5 -5.972656 20.5 -5.359375 L 20.5 -0.921875 C 20.5 -0.304688 20.191406 0 19.578125 0 L 3.234375 0 C 2.617188 0 2.3125 -0.304688 2.3125 -0.921875 L 2.3125 -15.921875 C 2.3125 -18.335938 2.773438 -20.328125 3.703125 -21.890625 C 4.628906 -23.453125 5.847656 -24.523438 7.359375 -25.109375 L 3.234375 -25.109375 C 2.617188 -25.109375 2.3125 -25.414062 2.3125 -26.03125 L 2.3125 -30.46875 C 2.3125 -31.082031 2.617188 -31.390625 3.234375 -31.390625 L 19.578125 -31.390625 C 20.191406 -31.390625 20.5 -31.082031 20.5 -30.46875 L 20.5 -26.03125 C 20.5 -25.414062 20.191406 -25.109375 19.578125 -25.109375 Z M 19.578125 -25.109375 "/></g></g></g><g fill="#000000" fill-opacity="1"><g transform="translate(268.371497, 359.755293)"><g><path d="M 22.84375 -5.71875 L 26.125 -1.109375 C 26.25 -0.941406 26.3125 -0.769531 26.3125 -0.59375 C 26.3125 -0.195312 26.050781 0 25.53125 0 L 18.96875 0 C 18.539062 0 18.171875 -0.195312 17.859375 -0.59375 L 9.734375 -12.140625 L 9.421875 -12.140625 L 9.421875 -8.71875 C 9.421875 -6.800781 9.125 -5.148438 8.53125 -3.765625 C 7.9375 -2.378906 7.113281 -1.289062 6.0625 -0.5 C 5.019531 0.289062 3.832031 0.765625 2.5 0.921875 L 2.5 -30.46875 C 2.5 -31.082031 2.804688 -31.390625 3.421875 -31.390625 L 8.5 -31.390625 C 8.601562 -31.390625 8.675781 -31.378906 8.71875 -31.359375 L 8.71875 -31.390625 L 12.921875 -31.390625 C 15.648438 -31.390625 17.84375 -30.988281 19.5 -30.1875 C 21.164062 -29.382812 22.367188 -28.25 23.109375 -26.78125 C 23.859375 -25.3125 24.234375 -23.570312 24.234375 -21.5625 C 24.234375 -19.726562 23.890625 -18.117188 23.203125 -16.734375 C 22.515625 -15.359375 21.414062 -14.28125 19.90625 -13.5 C 18.40625 -12.71875 16.425781 -12.269531 13.96875 -12.15625 C 15.582031 -11.757812 17.140625 -11.046875 18.640625 -10.015625 C 20.140625 -8.984375 21.539062 -7.550781 22.84375 -5.71875 Z M 17.3125 -21.328125 C 17.3125 -22.140625 17.179688 -22.800781 16.921875 -23.3125 C 16.671875 -23.832031 16.34375 -24.234375 15.9375 -24.515625 C 15.539062 -24.804688 15.113281 -25.007812 14.65625 -25.125 C 14.195312 -25.25 13.75 -25.320312 13.3125 -25.34375 C 12.882812 -25.375 12.523438 -25.390625 12.234375 -25.390625 L 9.421875 -25.390625 L 9.421875 -17.125 L 12.234375 -17.125 C 12.523438 -17.125 12.878906 -17.140625 13.296875 -17.171875 C 13.722656 -17.203125 14.164062 -17.28125 14.625 -17.40625 C 15.09375 -17.539062 15.53125 -17.753906 15.9375 -18.046875 C 16.34375 -18.335938 16.671875 -18.75 16.921875 -19.28125 C 17.179688 -19.8125 17.3125 -20.492188 17.3125 -21.328125 Z M 17.3125 -21.328125 "/></g></g></g><g fill="#000000" fill-opacity="1"><g transform="translate(294.992391, 359.755293)"><g><path d="M 23.265625 -10.5625 L 28.609375 -1.109375 C 28.796875 -0.816406 28.820312 -0.554688 28.6875 -0.328125 C 28.5625 -0.109375 28.320312 0 27.96875 0 L 21.5625 0 C 21.0625 0 20.707031 -0.210938 20.5 -0.640625 L 13.15625 -14.671875 L 9.421875 -10.65625 L 9.421875 -10.109375 C 9.421875 -8.003906 9.125 -6.210938 8.53125 -4.734375 C 7.9375 -3.265625 7.113281 -2.066406 6.0625 -1.140625 C 5.019531 -0.222656 3.832031 0.460938 2.5 0.921875 L 2.5 -30.46875 C 2.5 -31.082031 2.804688 -31.390625 3.421875 -31.390625 L 8.5 -31.390625 C 9.113281 -31.390625 9.421875 -31.082031 9.421875 -30.46875 L 9.421875 -17.21875 L 9.6875 -17.21875 C 10.007812 -18.445312 10.472656 -19.648438 11.078125 -20.828125 C 11.691406 -22.003906 12.507812 -23.15625 13.53125 -24.28125 L 19.4375 -30.875 C 19.769531 -31.21875 20.148438 -31.390625 20.578125 -31.390625 L 27 -31.390625 C 27.394531 -31.390625 27.640625 -31.269531 27.734375 -31.03125 C 27.828125 -30.800781 27.738281 -30.535156 27.46875 -30.234375 L 15.375 -17.078125 C 16.96875 -16.648438 18.429688 -15.894531 19.765625 -14.8125 C 21.109375 -13.738281 22.273438 -12.320312 23.265625 -10.5625 Z M 23.265625 -10.5625 "/></g></g></g></svg>