<svg xmlns="http://www.w3.org/2000/svg" xmlns:xlink="http://www.w3.org/1999/xlink" width="126" zoomAndPan="magnify" viewBox="0 0 94.5 69.749998" height="93" preserveAspectRatio="xMidYMid meet" version="1.0"><defs><g/><clipPath id="36aaf4daca"><path d="M 0 0.0585938 L 94.003906 0.0585938 L 94.003906 69.441406 L 0 69.441406 Z M 0 0.0585938 " clip-rule="nonzero"/></clipPath><clipPath id="6321298e1a"><path d="M 27.003906 0.0585938 L 74 0.0585938 L 74 58.25 L 27.003906 58.25 Z M 27.003906 0.0585938 " clip-rule="nonzero"/></clipPath></defs><g clip-path="url(#36aaf4daca)"><path fill="#ffffff" d="M 0 0.0585938 L 94.003906 0.0585938 L 94.003906 69.441406 L 0 69.441406 Z M 0 0.0585938 " fill-opacity="1" fill-rule="nonzero"/></g><g clip-path="url(#6321298e1a)"><path fill="#000000" d="M 73.878906 3.523438 C 73.816406 3.484375 73.738281 3.484375 73.667969 3.492188 C 73.15625 3.5625 72.808594 4.105469 72.300781 4.191406 C 72.324219 4.011719 72.398438 3.84375 72.46875 3.675781 C 72.921875 2.636719 73.390625 1.605469 73.871094 0.582031 C 73.945312 0.429688 74 0.207031 73.855469 0.117188 C 73.769531 0.0664062 73.648438 0.101562 73.574219 0.171875 C 73.5 0.238281 73.457031 0.339844 73.417969 0.429688 C 73.144531 1.035156 72.75 1.578125 72.359375 2.113281 C 72.113281 2.445312 71.867188 2.785156 71.5625 3.0625 C 71.199219 3.398438 70.761719 3.644531 70.417969 3.996094 C 70.199219 4.21875 70.019531 4.476562 69.8125 4.710938 C 69.347656 5.222656 68.730469 5.59375 68.058594 5.757812 C 66.363281 6.175781 64.625 6.496094 62.914062 6.847656 C 62.191406 6.996094 61.460938 7.148438 60.785156 7.445312 C 60.0625 7.765625 59.410156 8.25 58.902344 8.855469 C 58.15625 9.742188 56.691406 9.523438 55.691406 10.109375 C 55.429688 10.261719 55.179688 10.449219 54.894531 10.554688 C 54.585938 10.671875 54.25 10.6875 53.921875 10.730469 C 52.71875 10.894531 51.574219 11.460938 50.722656 12.320312 C 50.589844 11.667969 50.910156 11.011719 50.804688 10.351562 C 50.792969 10.285156 50.773438 10.214844 50.730469 10.160156 C 50.695312 10.113281 50.644531 10.082031 50.609375 10.035156 C 50.5625 9.96875 50.558594 9.878906 50.558594 9.796875 C 50.539062 8.984375 50.378906 8.175781 50.082031 7.421875 C 50.019531 7.253906 49.945312 7.085938 49.84375 6.9375 C 49.765625 6.820312 49.671875 6.714844 49.570312 6.617188 C 48.863281 5.933594 47.648438 5.582031 46.664062 5.574219 C 45.773438 5.566406 44.886719 6 44.347656 6.707031 C 43.628906 7.652344 43.558594 8.917969 43.5 10.101562 C 43.496094 10.183594 43.488281 10.265625 43.46875 10.339844 C 43.441406 10.433594 43.386719 10.515625 43.351562 10.605469 C 43.226562 10.894531 43.269531 11.226562 43.339844 11.53125 C 43.433594 11.945312 43.570312 12.347656 43.746094 12.730469 C 43.785156 12.808594 43.828125 12.890625 43.90625 12.929688 C 43.960938 12.957031 44.027344 12.957031 44.089844 12.976562 C 44.242188 13.023438 44.320312 13.199219 44.328125 13.359375 C 44.335938 13.519531 44.296875 13.675781 44.296875 13.835938 C 44.300781 14.144531 44.460938 14.425781 44.59375 14.703125 C 44.722656 14.980469 44.832031 15.300781 44.726562 15.59375 C 44.617188 15.910156 44.273438 16.121094 44.21875 16.453125 C 43.972656 16.664062 43.675781 16.871094 43.429688 17.085938 C 43.273438 17.21875 43.113281 17.355469 42.972656 17.507812 C 42.839844 17.648438 42.71875 17.800781 42.597656 17.953125 L 41.527344 19.320312 C 41.210938 19.726562 40.773438 20.441406 40.558594 20.914062 C 40.558594 20.917969 40.554688 20.925781 40.550781 20.933594 C 40.070312 21.992188 39.835938 23.140625 39.84375 24.304688 C 39.851562 25.382812 39.777344 26.460938 39.625 27.527344 C 39.515625 28.261719 39.609375 29.101562 39.21875 29.730469 C 39.078125 29.957031 38.875 30.140625 38.679688 30.324219 C 37.609375 31.332031 36.671875 32.484375 35.898438 33.734375 C 35.246094 34.796875 34.1875 35.632812 33.625 36.746094 C 33.46875 37.050781 33.335938 37.371094 33.132812 37.644531 C 33.011719 37.8125 32.863281 37.964844 32.761719 38.148438 C 32.632812 38.386719 32.589844 38.660156 32.542969 38.925781 C 32.425781 39.582031 32.261719 40.230469 32.058594 40.867188 C 31.703125 41.972656 31.214844 43.0625 31.066406 44.214844 C 31.019531 44.574219 31 44.933594 30.980469 45.289062 C 30.855469 47.589844 30.730469 49.886719 30.605469 52.1875 C 30.667969 52.234375 30.582031 52.324219 30.523438 52.375 C 30.46875 52.425781 30.390625 52.449219 30.328125 52.492188 C 30.152344 52.609375 30.117188 52.851562 29.984375 53.011719 C 29.800781 53.234375 29.464844 53.277344 29.273438 53.492188 C 29.117188 53.671875 29.09375 53.925781 29.042969 54.160156 C 28.847656 55.027344 28.164062 55.6875 27.519531 56.304688 C 27.335938 56.480469 27.144531 56.671875 27.082031 56.917969 C 27.003906 57.234375 27.15625 57.5625 27.167969 57.890625 C 27.167969 57.945312 27.167969 58.007812 27.199219 58.054688 C 27.203125 58.0625 27.210938 58.074219 27.222656 58.082031 C 27.359375 58.207031 27.550781 58.25 27.734375 58.246094 L 30.242188 58.207031 C 30.457031 58.203125 30.675781 58.199219 30.878906 58.128906 C 31.207031 58.015625 31.457031 57.742188 31.769531 57.582031 C 32.144531 57.390625 32.582031 57.375 32.984375 57.261719 C 33.390625 57.144531 33.808594 56.863281 33.84375 56.441406 C 33.867188 56.171875 33.726562 55.921875 33.613281 55.675781 C 33.300781 55.011719 33.167969 54.265625 33.222656 53.535156 C 33.230469 53.410156 33.242188 53.277344 33.183594 53.171875 C 33.136719 53.089844 33.054688 53.03125 33.003906 52.957031 C 32.917969 52.828125 32.921875 52.65625 32.933594 52.503906 C 33.109375 50.625 34.335938 49.03125 35.03125 47.277344 C 35.691406 45.601562 35.511719 43.683594 35.851562 41.917969 C 35.894531 41.691406 35.945312 41.464844 36.054688 41.261719 C 36.066406 41.277344 36.0625 41.265625 36.054688 41.246094 C 36.046875 41.226562 36.066406 41.207031 36.082031 41.195312 C 36.808594 40.5625 37.535156 39.929688 38.265625 39.292969 C 38.453125 39.132812 38.652344 38.964844 38.894531 38.921875 C 39.339844 38.839844 39.71875 39.191406 40.125 39.40625 C 40.332031 39.511719 40.53125 39.792969 40.574219 40.023438 C 40.851562 41.546875 41.074219 43.085938 41.242188 44.625 C 41.265625 44.851562 41.289062 45.082031 41.265625 45.308594 C 41.203125 45.878906 40.835938 46.433594 40.96875 46.992188 C 40.023438 47.027344 39.085938 47.726562 38.847656 48.644531 C 38.765625 48.964844 38.753906 49.292969 38.761719 49.621094 C 38.773438 49.898438 38.800781 50.179688 38.898438 50.4375 C 38.984375 50.65625 39.117188 50.855469 39.257812 51.042969 C 39.617188 51.53125 40.023438 51.988281 40.46875 52.398438 C 40.242188 52.992188 40.152344 53.730469 40.355469 54.332031 C 40.488281 54.730469 40.703125 55.101562 40.964844 55.429688 C 41.199219 55.722656 41.554688 55.898438 41.929688 55.898438 L 44.0625 55.898438 C 44.421875 55.898438 44.761719 55.742188 44.992188 55.472656 C 45.160156 55.269531 45.308594 55.058594 45.425781 54.8125 C 45.800781 54.003906 45.695312 52.996094 45.164062 52.285156 C 45.648438 51.714844 46.171875 51.0625 46.460938 50.371094 C 46.75 49.683594 46.824219 48.863281 46.480469 48.199219 C 46.320312 47.898438 46.089844 47.644531 45.859375 47.394531 C 45.839844 47.191406 45.777344 47.019531 45.757812 46.816406 C 45.734375 46.597656 45.710938 46.375 45.625 46.171875 C 45.429688 45.710938 44.964844 45.433594 44.523438 45.207031 C 44.261719 45.070312 43.980469 44.730469 43.875 44.457031 C 43.8125 44.285156 43.699219 44.109375 43.6875 43.9375 C 43.625 43.160156 43.5625 42.382812 43.5 41.605469 C 43.476562 41.347656 43.457031 41.085938 43.464844 40.824219 C 43.476562 40.414062 43.5625 40.007812 43.617188 39.597656 C 43.742188 38.707031 43.730469 37.792969 43.582031 36.90625 C 43.570312 36.8125 43.550781 36.714844 43.578125 36.625 C 43.601562 36.535156 43.664062 36.464844 43.726562 36.394531 L 44.515625 35.492188 C 44.699219 35.28125 45.078125 35.109375 45.359375 35.105469 C 46.53125 35.09375 47.734375 35.613281 48.84375 35.238281 C 49.117188 35.144531 49.378906 34.996094 49.667969 34.972656 C 49.957031 34.945312 50.296875 35.09375 50.347656 35.378906 C 50.980469 35.738281 51.421875 36.308594 51.875 36.878906 C 52.246094 37.34375 52.617188 37.808594 52.988281 38.273438 C 53.195312 38.535156 53.457031 38.824219 53.792969 38.816406 C 53.988281 38.8125 54.167969 38.707031 54.328125 38.59375 C 54.777344 38.289062 55.195312 37.9375 55.570312 37.542969 C 56.351562 37.988281 57.136719 38.402344 57.917969 38.84375 C 58.160156 38.980469 58.402344 39.121094 58.601562 39.3125 C 58.984375 39.679688 59.175781 40.214844 59.234375 40.746094 C 59.296875 41.273438 59.242188 41.808594 59.214844 42.34375 C 59.183594 42.996094 59.191406 43.652344 59.242188 44.308594 C 59.285156 44.886719 59.363281 45.46875 59.554688 46.019531 C 59.691406 46.414062 59.882812 46.785156 60.058594 47.164062 C 60.777344 48.730469 61.183594 50.441406 61.238281 52.164062 C 61.261719 52.914062 60.878906 53.632812 60.832031 54.382812 C 60.816406 54.652344 60.863281 54.921875 60.820312 55.1875 C 60.761719 55.578125 60.515625 55.929688 60.519531 56.324219 C 60.519531 56.472656 60.5625 56.628906 60.679688 56.71875 C 60.753906 56.773438 60.847656 56.792969 60.941406 56.8125 C 61.378906 56.910156 61.84375 57.035156 62.140625 57.375 C 62.21875 57.464844 62.285156 57.570312 62.375 57.652344 C 62.582031 57.84375 62.882812 57.886719 63.164062 57.914062 C 64.070312 57.996094 64.984375 57.996094 65.894531 57.910156 C 66.1875 57.882812 66.539062 57.800781 66.625 57.519531 C 66.652344 57.429688 66.644531 57.339844 66.640625 57.25 C 66.605469 56.675781 66.527344 56.070312 66.167969 55.621094 C 65.914062 55.3125 65.550781 55.113281 65.28125 54.816406 C 64.945312 54.441406 64.792969 53.945312 64.648438 53.464844 C 64.585938 53.246094 64.515625 53.023438 64.375 52.847656 C 64.304688 52.757812 64.21875 52.683594 64.148438 52.59375 C 63.980469 52.382812 63.917969 52.101562 63.726562 51.925781 C 63.683594 51.792969 63.644531 51.683594 63.597656 51.554688 C 63.65625 51.070312 63.644531 50.554688 63.648438 50.066406 C 63.65625 49.59375 63.636719 49.117188 63.628906 48.644531 C 63.617188 47.582031 63.683594 46.519531 63.746094 45.457031 C 63.867188 43.503906 63.578125 41.550781 62.925781 39.707031 C 62.644531 38.910156 62.472656 38.082031 62.488281 37.226562 C 62.496094 36.902344 62.445312 36.578125 62.3125 36.28125 C 61.683594 34.882812 60.445312 33.914062 59.703125 32.570312 C 59.210938 31.675781 58.140625 31.214844 57.53125 30.390625 C 57.367188 30.164062 57.214844 29.925781 57.039062 29.707031 C 56.460938 28.996094 55.589844 28.476562 55.304688 27.605469 C 55.265625 27.480469 55.238281 27.355469 55.175781 27.242188 C 54.96875 26.859375 54.46875 26.777344 54.035156 26.742188 C 54.011719 26.671875 53.894531 26.679688 53.824219 26.664062 C 53.734375 26.644531 53.714844 26.523438 53.71875 26.429688 C 53.746094 25.578125 53.789062 24.726562 53.851562 23.878906 C 53.902344 23.179688 53.964844 22.480469 53.96875 21.777344 C 53.972656 21.046875 53.910156 20.316406 53.851562 19.589844 C 53.71875 17.957031 54.347656 16.457031 54.492188 14.824219 C 54.703125 14.648438 54.988281 14.675781 55.257812 14.605469 C 56.269531 14.339844 57.0625 13.574219 57.929688 12.980469 C 58.894531 12.320312 59.984375 11.855469 61.0625 11.398438 C 63.253906 10.464844 65.363281 9.3125 67.363281 8.023438 C 67.582031 7.882812 67.804688 7.742188 68.035156 7.617188 C 68.300781 7.472656 68.578125 7.34375 68.855469 7.21875 C 69.335938 7 69.816406 6.78125 70.296875 6.5625 C 70.5625 6.445312 70.824219 6.421875 71.101562 6.335938 C 71.882812 6.097656 72.304688 5.257812 72.980469 4.804688 C 73.1875 4.664062 73.421875 4.558594 73.621094 4.40625 C 73.820312 4.253906 73.988281 4.03125 73.992188 3.78125 C 73.992188 3.683594 73.960938 3.574219 73.878906 3.523438 Z M 43.546875 48.984375 C 43.578125 48.960938 43.605469 48.925781 43.636719 48.902344 C 43.726562 48.839844 43.855469 48.871094 43.949219 48.925781 C 44.046875 48.976562 44.132812 49.050781 44.242188 49.074219 C 44.40625 49.113281 44.582031 49.023438 44.691406 48.894531 C 44.796875 48.765625 44.855469 48.597656 44.910156 48.4375 C 45.09375 48.515625 45.230469 48.683594 45.300781 48.871094 C 45.375 49.058594 45.390625 49.261719 45.386719 49.460938 C 45.382812 49.652344 45.363281 49.839844 45.300781 50.019531 C 45.203125 50.3125 45 50.558594 44.800781 50.796875 C 44.6875 50.929688 44.574219 51.066406 44.460938 51.203125 C 44.023438 50.761719 43.382812 50.542969 42.761719 50.589844 C 42.144531 50.632812 41.554688 50.933594 41.117188 51.375 C 40.839844 51.027344 40.5625 50.675781 40.285156 50.328125 C 40.167969 50.179688 40.046875 50.027344 39.976562 49.851562 C 39.835938 49.511719 39.898438 49.101562 40.105469 48.796875 C 40.269531 48.554688 40.585938 48.296875 40.886719 48.25 C 41.074219 48.21875 41.066406 48.300781 41.167969 48.449219 C 41.261719 48.589844 41.375 48.71875 41.503906 48.828125 C 41.621094 48.925781 41.804688 49.007812 41.910156 48.894531 C 41.9375 48.867188 41.953125 48.828125 41.984375 48.804688 C 42.058594 48.742188 42.167969 48.78125 42.253906 48.828125 C 42.40625 48.914062 42.597656 49.011719 42.746094 48.917969 C 42.785156 48.894531 42.820312 48.855469 42.863281 48.839844 C 42.96875 48.796875 43.078125 48.894531 43.171875 48.957031 C 43.285156 49.03125 43.441406 49.066406 43.546875 48.984375 Z M 43.546875 48.984375 " fill-opacity="1" fill-rule="nonzero"/></g><g fill="#000000" fill-opacity="1"><g transform="translate(22.209049, 64.246102)"><g><path d="M 1.5625 -5.625 L 2.3125 -5.625 C 2.800781 -5.625 3.195312 -5.550781 3.5 -5.40625 C 3.800781 -5.257812 4.015625 -5.050781 4.140625 -4.78125 C 4.273438 -4.507812 4.34375 -4.191406 4.34375 -3.828125 C 4.34375 -3.453125 4.273438 -3.128906 4.140625 -2.859375 C 4.015625 -2.585938 3.800781 -2.378906 3.5 -2.234375 C 3.195312 -2.085938 2.800781 -2.015625 2.3125 -2.015625 L 1.6875 -2.015625 L 1.6875 -1.5625 C 1.6875 -1.21875 1.632812 -0.921875 1.53125 -0.671875 C 1.425781 -0.421875 1.28125 -0.222656 1.09375 -0.078125 C 0.90625 0.0546875 0.691406 0.140625 0.453125 0.171875 L 0.453125 -5.46875 C 0.453125 -5.570312 0.503906 -5.625 0.609375 -5.625 L 1.53125 -5.625 C 1.539062 -5.625 1.550781 -5.625 1.5625 -5.625 Z M 1.6875 -3.078125 L 2.1875 -3.078125 C 2.238281 -3.078125 2.300781 -3.078125 2.375 -3.078125 C 2.457031 -3.085938 2.539062 -3.101562 2.625 -3.125 C 2.707031 -3.144531 2.785156 -3.179688 2.859375 -3.234375 C 2.929688 -3.285156 2.988281 -3.359375 3.03125 -3.453125 C 3.082031 -3.554688 3.109375 -3.679688 3.109375 -3.828125 C 3.109375 -3.972656 3.082031 -4.09375 3.03125 -4.1875 C 2.988281 -4.28125 2.929688 -4.347656 2.859375 -4.390625 C 2.785156 -4.441406 2.707031 -4.476562 2.625 -4.5 C 2.539062 -4.53125 2.457031 -4.546875 2.375 -4.546875 C 2.300781 -4.546875 2.238281 -4.546875 2.1875 -4.546875 L 1.6875 -4.546875 Z M 1.6875 -3.078125 "/></g></g></g><g fill="#000000" fill-opacity="1"><g transform="translate(26.713378, 64.246102)"><g><path d="M 3.96875 -3.46875 L 3.96875 -3.984375 C 3.96875 -4.328125 4.019531 -4.625 4.125 -4.875 C 4.238281 -5.125 4.382812 -5.328125 4.5625 -5.484375 C 4.75 -5.640625 4.960938 -5.742188 5.203125 -5.796875 L 5.203125 -0.171875 C 5.203125 -0.0546875 5.148438 0 5.046875 0 L 4.125 0 C 4.019531 0 3.96875 -0.0546875 3.96875 -0.171875 L 3.96875 -2.34375 L 3.1875 -2.34375 C 2.800781 -2.34375 2.476562 -2.414062 2.21875 -2.5625 C 1.96875 -2.707031 1.796875 -2.898438 1.703125 -3.140625 L 1.703125 -1.640625 C 1.703125 -1.296875 1.644531 -1 1.53125 -0.75 C 1.425781 -0.5 1.28125 -0.296875 1.09375 -0.140625 C 0.90625 0.00390625 0.691406 0.109375 0.453125 0.171875 L 0.453125 -5.46875 C 0.453125 -5.570312 0.507812 -5.625 0.625 -5.625 L 1.53125 -5.625 C 1.644531 -5.625 1.703125 -5.570312 1.703125 -5.46875 L 1.703125 -3.46875 Z M 3.96875 -3.46875 "/></g></g></g><g fill="#000000" fill-opacity="1"><g transform="translate(32.385189, 64.246102)"><g><path d="M 3.109375 0.078125 C 2.671875 0.078125 2.273438 0.0078125 1.921875 -0.125 C 1.566406 -0.257812 1.257812 -0.453125 1 -0.703125 C 0.75 -0.960938 0.554688 -1.269531 0.421875 -1.625 C 0.285156 -1.988281 0.21875 -2.390625 0.21875 -2.828125 C 0.21875 -3.273438 0.285156 -3.675781 0.421875 -4.03125 C 0.566406 -4.382812 0.765625 -4.6875 1.015625 -4.9375 C 1.273438 -5.1875 1.582031 -5.378906 1.9375 -5.515625 C 2.289062 -5.648438 2.6875 -5.71875 3.125 -5.71875 C 3.5625 -5.71875 3.957031 -5.648438 4.3125 -5.515625 C 4.664062 -5.378906 4.96875 -5.179688 5.21875 -4.921875 C 5.476562 -4.671875 5.675781 -4.367188 5.8125 -4.015625 C 5.945312 -3.660156 6.015625 -3.265625 6.015625 -2.828125 C 6.015625 -2.378906 5.941406 -1.972656 5.796875 -1.609375 C 5.660156 -1.253906 5.460938 -0.953125 5.203125 -0.703125 C 4.953125 -0.453125 4.648438 -0.257812 4.296875 -0.125 C 3.941406 0.0078125 3.546875 0.078125 3.109375 0.078125 Z M 3.109375 -1.046875 C 3.347656 -1.046875 3.566406 -1.082031 3.765625 -1.15625 C 3.960938 -1.238281 4.132812 -1.359375 4.28125 -1.515625 C 4.4375 -1.671875 4.554688 -1.859375 4.640625 -2.078125 C 4.722656 -2.296875 4.765625 -2.546875 4.765625 -2.828125 C 4.765625 -3.109375 4.722656 -3.359375 4.640625 -3.578125 C 4.554688 -3.796875 4.4375 -3.976562 4.28125 -4.125 C 4.132812 -4.28125 3.960938 -4.394531 3.765625 -4.46875 C 3.566406 -4.550781 3.347656 -4.59375 3.109375 -4.59375 C 2.890625 -4.59375 2.675781 -4.550781 2.46875 -4.46875 C 2.269531 -4.394531 2.09375 -4.28125 1.9375 -4.125 C 1.789062 -3.976562 1.675781 -3.796875 1.59375 -3.578125 C 1.507812 -3.359375 1.46875 -3.109375 1.46875 -2.828125 C 1.46875 -2.546875 1.507812 -2.296875 1.59375 -2.078125 C 1.675781 -1.859375 1.789062 -1.671875 1.9375 -1.515625 C 2.09375 -1.359375 2.269531 -1.238281 2.46875 -1.15625 C 2.675781 -1.082031 2.890625 -1.046875 3.109375 -1.046875 Z M 3.109375 -1.046875 "/></g></g></g><g fill="#000000" fill-opacity="1"><g transform="translate(38.620038, 64.246102)"><g><path d="M 5.921875 -5.484375 L 7.1875 -0.1875 C 7.195312 -0.132812 7.1875 -0.0859375 7.15625 -0.046875 C 7.132812 -0.015625 7.09375 0 7.03125 0 L 6.09375 0 C 5.988281 0 5.925781 -0.0507812 5.90625 -0.15625 L 5.203125 -3.53125 L 4.59375 -1.546875 C 4.5 -1.242188 4.398438 -0.988281 4.296875 -0.78125 C 4.203125 -0.582031 4.101562 -0.421875 4 -0.296875 C 3.894531 -0.171875 3.78125 -0.0703125 3.65625 0 C 3.539062 0.0703125 3.410156 0.128906 3.265625 0.171875 L 2.109375 -3.53125 L 1.703125 -1.625 C 1.617188 -1.21875 1.492188 -0.882812 1.328125 -0.625 C 1.171875 -0.363281 0.984375 -0.164062 0.765625 -0.03125 C 0.546875 0.101562 0.304688 0.171875 0.046875 0.171875 L 1.390625 -5.484375 C 1.410156 -5.578125 1.472656 -5.625 1.578125 -5.625 L 2.421875 -5.625 C 2.523438 -5.625 2.585938 -5.578125 2.609375 -5.484375 L 3.640625 -2.109375 L 4.703125 -5.484375 C 4.722656 -5.578125 4.785156 -5.625 4.890625 -5.625 L 5.734375 -5.625 C 5.835938 -5.625 5.898438 -5.578125 5.921875 -5.484375 Z M 5.921875 -5.484375 "/></g></g></g><g fill="#000000" fill-opacity="1"><g transform="translate(45.91473, 64.246102)"><g><path d="M 3.515625 -4.5 L 1.65625 -4.5 L 1.65625 -3.46875 L 3.421875 -3.46875 C 3.535156 -3.46875 3.59375 -3.410156 3.59375 -3.296875 L 3.59375 -2.515625 C 3.59375 -2.398438 3.535156 -2.34375 3.421875 -2.34375 L 3.140625 -2.34375 C 2.753906 -2.34375 2.4375 -2.414062 2.1875 -2.5625 C 1.9375 -2.707031 1.757812 -2.898438 1.65625 -3.140625 L 1.65625 -1.125 L 3.515625 -1.125 C 3.617188 -1.125 3.671875 -1.066406 3.671875 -0.953125 L 3.671875 -0.171875 C 3.671875 -0.0546875 3.617188 0 3.515625 0 L 0.578125 0 C 0.460938 0 0.40625 -0.0546875 0.40625 -0.171875 L 0.40625 -2.859375 C 0.40625 -3.285156 0.488281 -3.640625 0.65625 -3.921875 C 0.832031 -4.203125 1.054688 -4.394531 1.328125 -4.5 L 0.578125 -4.5 C 0.460938 -4.5 0.40625 -4.554688 0.40625 -4.671875 L 0.40625 -5.46875 C 0.40625 -5.570312 0.460938 -5.625 0.578125 -5.625 L 3.515625 -5.625 C 3.617188 -5.625 3.671875 -5.570312 3.671875 -5.46875 L 3.671875 -4.671875 C 3.671875 -4.554688 3.617188 -4.5 3.515625 -4.5 Z M 3.515625 -4.5 "/></g></g></g><g fill="#000000" fill-opacity="1"><g transform="translate(49.930539, 64.246102)"><g><path d="M 5.1875 -2.109375 L 5.609375 -4.078125 C 5.691406 -4.484375 5.8125 -4.8125 5.96875 -5.0625 C 6.125 -5.320312 6.3125 -5.507812 6.53125 -5.625 C 6.75 -5.738281 6.988281 -5.796875 7.25 -5.796875 L 5.90625 -0.140625 C 5.882812 -0.046875 5.820312 0 5.71875 0 L 4.875 0 C 4.769531 0 4.707031 -0.046875 4.6875 -0.140625 L 3.640625 -3.578125 L 2.59375 -0.140625 C 2.570312 -0.046875 2.507812 0 2.40625 0 L 1.5625 0 C 1.457031 0 1.394531 -0.046875 1.375 -0.140625 L 0.109375 -5.453125 C 0.0976562 -5.503906 0.101562 -5.546875 0.125 -5.578125 C 0.15625 -5.609375 0.195312 -5.625 0.25 -5.625 L 1.203125 -5.625 C 1.304688 -5.625 1.367188 -5.578125 1.390625 -5.484375 L 2.09375 -2.109375 L 2.703125 -4.171875 C 2.796875 -4.472656 2.890625 -4.71875 2.984375 -4.90625 C 3.085938 -5.101562 3.191406 -5.257812 3.296875 -5.375 C 3.410156 -5.488281 3.53125 -5.578125 3.65625 -5.640625 C 3.78125 -5.710938 3.910156 -5.765625 4.046875 -5.796875 Z M 5.1875 -2.109375 "/></g></g></g><g fill="#000000" fill-opacity="1"><g transform="translate(57.22523, 64.246102)"><g><path d="M 3.515625 -4.5 L 1.65625 -4.5 L 1.65625 -3.46875 L 3.421875 -3.46875 C 3.535156 -3.46875 3.59375 -3.410156 3.59375 -3.296875 L 3.59375 -2.515625 C 3.59375 -2.398438 3.535156 -2.34375 3.421875 -2.34375 L 3.140625 -2.34375 C 2.753906 -2.34375 2.4375 -2.414062 2.1875 -2.5625 C 1.9375 -2.707031 1.757812 -2.898438 1.65625 -3.140625 L 1.65625 -1.125 L 3.515625 -1.125 C 3.617188 -1.125 3.671875 -1.066406 3.671875 -0.953125 L 3.671875 -0.171875 C 3.671875 -0.0546875 3.617188 0 3.515625 0 L 0.578125 0 C 0.460938 0 0.40625 -0.0546875 0.40625 -0.171875 L 0.40625 -2.859375 C 0.40625 -3.285156 0.488281 -3.640625 0.65625 -3.921875 C 0.832031 -4.203125 1.054688 -4.394531 1.328125 -4.5 L 0.578125 -4.5 C 0.460938 -4.5 0.40625 -4.554688 0.40625 -4.671875 L 0.40625 -5.46875 C 0.40625 -5.570312 0.460938 -5.625 0.578125 -5.625 L 3.515625 -5.625 C 3.617188 -5.625 3.671875 -5.570312 3.671875 -5.46875 L 3.671875 -4.671875 C 3.671875 -4.554688 3.617188 -4.5 3.515625 -4.5 Z M 3.515625 -4.5 "/></g></g></g><g fill="#000000" fill-opacity="1"><g transform="translate(61.241039, 64.246102)"><g><path d="M 4.09375 -1.03125 L 4.6875 -0.203125 C 4.707031 -0.171875 4.71875 -0.140625 4.71875 -0.109375 C 4.71875 -0.0351562 4.671875 0 4.578125 0 L 3.40625 0 C 3.320312 0 3.253906 -0.0351562 3.203125 -0.109375 L 1.75 -2.171875 L 1.6875 -2.171875 L 1.6875 -1.5625 C 1.6875 -1.21875 1.632812 -0.921875 1.53125 -0.671875 C 1.425781 -0.421875 1.28125 -0.222656 1.09375 -0.078125 C 0.90625 0.0546875 0.691406 0.140625 0.453125 0.171875 L 0.453125 -5.46875 C 0.453125 -5.570312 0.503906 -5.625 0.609375 -5.625 L 1.53125 -5.625 C 1.539062 -5.625 1.550781 -5.625 1.5625 -5.625 L 2.3125 -5.625 C 2.800781 -5.625 3.195312 -5.550781 3.5 -5.40625 C 3.800781 -5.269531 4.015625 -5.066406 4.140625 -4.796875 C 4.273438 -4.535156 4.34375 -4.226562 4.34375 -3.875 C 4.34375 -3.539062 4.28125 -3.25 4.15625 -3 C 4.039062 -2.757812 3.847656 -2.566406 3.578125 -2.421875 C 3.304688 -2.285156 2.945312 -2.207031 2.5 -2.1875 C 2.789062 -2.113281 3.070312 -1.984375 3.34375 -1.796875 C 3.613281 -1.609375 3.863281 -1.351562 4.09375 -1.03125 Z M 3.109375 -3.828125 C 3.109375 -3.972656 3.082031 -4.09375 3.03125 -4.1875 C 2.988281 -4.28125 2.929688 -4.347656 2.859375 -4.390625 C 2.785156 -4.441406 2.707031 -4.476562 2.625 -4.5 C 2.539062 -4.53125 2.457031 -4.546875 2.375 -4.546875 C 2.300781 -4.546875 2.238281 -4.546875 2.1875 -4.546875 L 1.6875 -4.546875 L 1.6875 -3.078125 L 2.1875 -3.078125 C 2.238281 -3.078125 2.300781 -3.078125 2.375 -3.078125 C 2.457031 -3.085938 2.539062 -3.101562 2.625 -3.125 C 2.707031 -3.144531 2.785156 -3.179688 2.859375 -3.234375 C 2.929688 -3.285156 2.988281 -3.359375 3.03125 -3.453125 C 3.082031 -3.554688 3.109375 -3.679688 3.109375 -3.828125 Z M 3.109375 -3.828125 "/></g></g></g><g fill="#000000" fill-opacity="1"><g transform="translate(66.018608, 64.246102)"><g><path d="M 4.171875 -1.890625 L 5.140625 -0.203125 C 5.171875 -0.148438 5.171875 -0.101562 5.140625 -0.0625 C 5.117188 -0.0195312 5.078125 0 5.015625 0 L 3.875 0 C 3.78125 0 3.710938 -0.0351562 3.671875 -0.109375 L 2.359375 -2.640625 L 1.6875 -1.90625 L 1.6875 -1.8125 C 1.6875 -1.4375 1.632812 -1.113281 1.53125 -0.84375 C 1.425781 -0.582031 1.28125 -0.367188 1.09375 -0.203125 C 0.90625 -0.0351562 0.691406 0.0859375 0.453125 0.171875 L 0.453125 -5.46875 C 0.453125 -5.570312 0.503906 -5.625 0.609375 -5.625 L 1.53125 -5.625 C 1.632812 -5.625 1.6875 -5.570312 1.6875 -5.46875 L 1.6875 -3.09375 L 1.734375 -3.09375 C 1.796875 -3.3125 1.878906 -3.523438 1.984375 -3.734375 C 2.097656 -3.941406 2.242188 -4.148438 2.421875 -4.359375 L 3.484375 -5.546875 C 3.546875 -5.597656 3.613281 -5.625 3.6875 -5.625 L 4.84375 -5.625 C 4.914062 -5.625 4.957031 -5.601562 4.96875 -5.5625 C 4.988281 -5.519531 4.972656 -5.472656 4.921875 -5.421875 L 2.75 -3.0625 C 3.039062 -2.988281 3.304688 -2.851562 3.546875 -2.65625 C 3.785156 -2.46875 3.992188 -2.210938 4.171875 -1.890625 Z M 4.171875 -1.890625 "/></g></g></g></svg>